<svg xmlns="http://www.w3.org/2000/svg" width="19.19" height="19.2" viewBox="0 0 19.19 19.2">
  <path id="iconfinder_icon-close_211652" d="M82.923,80.337l-6.557-6.582,6.572-6.5a.694.694,0,0,0,0-.979L81.069,64.4a.688.688,0,0,0-.49-.2.709.709,0,0,0-.49.2l-6.542,6.477L67,64.4a.688.688,0,0,0-.49-.2.709.709,0,0,0-.49.2l-1.864,1.879a.694.694,0,0,0,0,.979l6.572,6.5-6.552,6.577a.692.692,0,0,0-.2.49.672.672,0,0,0,.2.49L66.041,83.2a.689.689,0,0,0,.49.2.677.677,0,0,0,.49-.2l6.527-6.557,6.532,6.552a.689.689,0,0,0,.49.2.677.677,0,0,0,.49-.2l1.869-1.879a.692.692,0,0,0,.2-.49A.717.717,0,0,0,82.923,80.337Z" transform="translate(-63.95 -64.2)"/>
</svg>
