<svg xmlns="http://www.w3.org/2000/svg" width="140.075" height="137.5" viewBox="0 0 140.075 137.5">
  <defs>
    <style>
      .cls-1 {
        fill: #d5d5d5;
      }
    </style>
  </defs>
  <g id="Layer_2" data-name="Layer 2" transform="translate(-2 -2)">
    <path id="Path_5" data-name="Path 5" class="cls-1" d="M114.06,8.875V2H30.015V8.875C14.543,8.875,2,21.187,2,36.375s12.543,27.5,28.015,27.5h5.673A42.024,42.024,0,0,0,65.034,83.881V98.25H38.56L28.054,139.5h87.967L105.515,98.25H79.041V83.881a42.024,42.024,0,0,0,29.346-20.006h5.673c15.472,0,28.015-12.312,28.015-27.5S129.532,8.875,114.06,8.875ZM30.015,50.125a13.752,13.752,0,1,1,0-27.5V43.25a36.934,36.934,0,0,0,.63,6.875Zm93.92-4.056a14.14,14.14,0,0,1-9.875,4.056h-.63a36.935,36.935,0,0,0,.63-6.875V22.625a13.881,13.881,0,0,1,14.007,13.75A13.625,13.625,0,0,1,123.935,46.069Z"/>
  </g>
</svg>
